<?xml version="1.0" encoding="UTF-8" standalone="no"?>
<svg id="svg4136" xmlns:rdf="http://www.w3.org/1999/02/22-rdf-syntax-ns#" xmlns="http://www.w3.org/2000/svg" height="3556" viewBox="0 0 2127 3556" width="2127" version="1.1" xmlns:cc="http://creativecommons.org/ns#" xmlns:dc="http://purl.org/dc/elements/1.1/">
<path id="path4146" d="m776.24 3553.5c-625.08-62.4-719.45-282.4-161.74-377 59.544-10.102 170.19-24.01 185.87-23.363 3.3437 0.1379 2.2788 0.2747-38.369 4.9287-602.39 68.972-628.99 308.26-43 386.94 8.525 1.1446 16.917 2.2793 18.649 2.5214 9.7101 1.3573 38.056 4.593 52.351 5.9759 18.716 1.8107 21.643 2.2717 14.5 2.2835-2.75 0-15.469-1.0366-28.263-2.3136zm532.26 2.1087c0.55-0.2356 8.65-1.1673 18-2.0706 27.888-2.6941 78.48-9.1068 98.5-12.485 3.025-0.5105 7.525-1.1926 10-1.5159 154.59-20.19 314.11-77.191 364.07-130.1 101.86-107.86-96.613-213.45-480.07-255.41-9.625-1.0532-13.45-1.6858-8.5-1.4059 92.626 5.239 245.47 30.409 336.34 55.388 354.99 97.579 276.48 256.19-161.84 326.95-56.012 9.0417-184.49 24.072-176.5 20.647zm-286.21-22.706c-340.25-4.2-611.84-102.2-594.81-214.6l0.72204-4.7662 1.9016 7.5c20.329 80.179 180.57 145.02 423.65 171.44 87.228 9.4802 208.59 12.36 296.23 7.0278 287.39-17.483 502.33-91.813 531.54-183.82 2.5568-8.0539 3.4594-7.0185 3.4594 3.9684 0 105.26-230.54 195.34-541 211.4-39.172 2.0258-69.352 2.4823-121.71 1.841zm-139.29-341c74.42-74 108.63-162.7 112.57-291.9 1.214-39.744-2.6855-182.18-9.1167-333-3.3893-79.485-9.2059-205.45-10.967-237.5-0.30221-5.5-1.8863-37-3.5203-70s-3.422-68.1-3.9736-78c-1.6118-28.933-1.9399-35.02-4.0155-74.5-3.3409-63.547-5.8577-107.68-6.4729-113.5-0.23249-2.2-0.69247-7.6-1.0222-12-0.5379-7.1783-3.7038-40.161-5.0874-53-9.2731-86.053-34.116-240.62-50.469-314-27.355-122.75-102.83-308.65-163.73-403.27-1.189-1.8474-1.2044-2.1623-0.083-1.7012 0.75689 0.3113 4.3012 4.9093 7.8762 10.218 23.34 34.658 59.025 58.897 148.77 101.05 30.632 14.388 66.872 23.47 118.46 29.687 20.932 2.5226 70.092 3.0759 87.774 0.9879 25.51-3.0123 32.308-3.9507 44-6.0734 81.211-14.744 155.84-50.557 205.62-98.671l11.144-10.771-9.4301 17.271c-51.017 93.436-96.936 204.23-124.24 299.77-30.906 108.13-67.276 340.31-74.566 476-0.3102 5.775-0.7747 14.1-1.0322 18.5-0.6635 11.337-1.2892 22.967-2.9862 55.5-0.8177 15.675-1.7218 32.55-2.0093 37.5-2.4193 41.657-10.439 201.75-14.451 288.5-1.641 35.475-3.2217 69.45-3.5128 75.5s-1.4165 32.6-2.5009 59c-1.0843 26.4-2.2065 53.4-2.4937 60-0.4595 10.561-1.1871 30.114-3.0141 81-2.4301 67.684-2.9368 93.973-2.9781 154.5-0.034 49.898 0.3184 73.167 1.2493 82.5 10.652 106.8 42.678 180.8 106.65 246.44 15.252 15.647 15.045 15.621-3.5088-0.4393-111.41-96.443-132.94-133.84-141.89-246.5-0.5903-7.425-1.2869-16.2-1.548-19.5-7.722-97.592-4.1619-420.7 7.5366-684 5.8029-130.61 19.144-363.83 25.455-445 0.2993-3.85 1.895-25.675 3.546-48.5 2.7504-38.024 7.2425-96.638 8.4303-110 0.2689-3.025 1.1847-13.6 2.0351-23.5 4.5279-52.713 7.7692-84.944 11.163-111 10.818-83.063-15.453-125.9-77.166-125.81-61.055 0.082-93.748 44.651-84.955 115.81 11.593 93.826 28.605 314.59 39.955 518.5 0.2908 5.225 0.737 12.65 0.9916 16.5 0.2545 3.85 0.7014 11.5 0.9931 17 1.103 20.798 2.5265 47.346 3.0294 56.5 6.1394 111.74 11.563 247.51 14.44 361.5 5.0571 200.33 5.4211 352.7 1.0512 440-1.0914 21.805-1.2127 23.52-3.5369 50-9.3774 106.84-35.135 148.81-151.54 246.95l-9.4271 7.9474 12.507-12.447zm139.99-1880.5c-146.41-12.4-252.76-78.8-332.96-207.9-34.31-55.2-353.28-564.97-361.2-577.24-5.41-8.38-9.84-15.45-9.84-15.71 0-0.27-71.75-115.25-159.46-255.52l-159.45-255.03h1063.4 1063.4l-164.3 262.75c-90.357 144.51-243.5 389.42-340.32 544.25-96.818 154.82-180.23 288.25-185.35 296.5-93.508 150.49-237.55 222.83-413.96 207.88zm87.5-70.796c2.2-0.2612 8.95-0.9794 15-1.5961 99.66-10.159 177.14-52.007 235.11-126.99 11.227-14.521 19.161-26.736 65.603-101 26.656-42.625 105.32-168.4 174.8-279.5 69.484-111.1 190.07-303.92 267.96-428.5 77.897-124.58 142.42-227.71 143.4-229.18l1.7652-2.6785-4.3181-0.52342c-2.375-0.28788-46.393-1.9072-97.818-3.5986-51.425-1.6913-96.65-3.2703-100.5-3.5088s-16.9-0.68583-29-0.99407-25.375-0.76856-29.5-1.0229c-4.125-0.25437-16.725-0.7023-28-0.99539s-24.325-0.74356-29-1.001c-4.675-0.25748-17.275-0.70692-28-0.99874s-23.775-0.74303-29-1.0027c-5.225-0.25966-18.05-0.71482-28.5-1.0115-10.45-0.29666-23.05-0.73786-28-0.98043-4.95-0.24258-17.325-0.6899-27.5-0.99406s-23.45-0.76174-29.5-1.0169c-6.05-0.25512-18.65-0.70081-28-0.99042s-22.175-0.73801-28.5-0.99645c-6.325-0.25843-19.375-0.70813-29-0.99933s-23.35-0.74853-30.5-1.0163-19.75-0.71869-28-1.002c-8.25-0.28336-20.4-0.72837-27-0.98892s-19.2-0.71376-28-1.0071c-36.435-1.2147-102.85-3.5153-114.5-3.9661-6.875-0.26612-20.6-0.73283-30.5-1.0372-9.9-0.30432-22.05-0.74785-27-0.98563s-18.9-0.72624-31-1.0855c-12.1-0.35923-23.575-0.81247-25.5-1.0072-4.5592-0.46119-64.441-0.46119-69 0-1.925 0.19473-13.4 0.64797-25.5 1.0072s-26.05 0.84769-31 1.0855c-4.95 0.23778-17.1 0.68131-27 0.98563s-23.625 0.77104-30.5 1.0372c-11.646 0.45081-78.065 2.7515-114.5 3.9661-8.8 0.29338-21.4 0.74659-28 1.0071-6.6 0.26055-18.75 0.70557-27 0.98892-8.25 0.28336-20.85 0.73428-28 1.002-7.15 0.26777-20.875 0.7251-30.5 1.0163s-22.675 0.7409-29 0.99933-19.15 0.70684-28.5 0.99645-21.95 0.7353-28 0.99042-19.325 0.71271-29.5 1.0169c-10.175 0.30416-22.55 0.75148-27.5 0.99406s-17.55 0.68377-28 0.98043-23.275 0.75183-28.5 1.0115c-5.225 0.25966-18.275 0.71086-29 1.0027-10.725 0.29182-23.325 0.74125-28 0.99874s-17.725 0.70796-29 1.001c-11.275 0.29309-23.875 0.74102-28 0.99539s-17.4 0.71469-29.5 1.0229c-12.1 0.30824-25.15 0.75557-29 0.99407s-49.075 1.8174-100.5 3.5088c-51.425 1.6913-95.443 3.3107-97.818 3.5986l-4.3182 0.52342 1.7652 2.6785c0.95 1.494 65.48 104.62 143.37 229.2 77.897 124.58 196.22 313.8 262.94 420.5 66.722 106.7 123.88 197.6 127.01 202 3.1348 4.4 24.744 34.775 48.021 67.5s45.057 63.325 48.399 68c86.34 120.75 170.82 171.87 298.1 180.37 7.4609 0.4982 62.55-0.136 68-0.7828zm-362.84-1022.6c0.62155-5.9466 2.9223-11.568 6.0594-14.804 1.5815-1.6314 1.6081-1.107 0.12732 2.5063-1.3632 3.3263-1.8208 4.8702-2.5389 8.5651-0.29395 1.5125-0.82087 2.7503-1.171 2.7507-0.35007 0.00038-0.70421 1.1706-0.78697 2.6005-0.0828 1.4299-0.64806 3.0974-1.2562 3.7055-0.80767 0.80767-0.92458-0.62765-0.43367-5.3244z"/>
</svg>
